<svg width="384" height="388" viewBox="0 0 384 388" fill="none" xmlns="http://www.w3.org/2000/svg">
<path d="M340.641 5.27513C293.14 50.7751 261.141 6.77513 207.141 0.275131C115.14 -3.72489 37.822 35.5016 4.32178 143.502C-30.6782 358.002 157.64 386.275 183.14 386.275C202.64 390.775 227.64 354.775 186.64 340.275C145.04 343.875 103.307 313.108 87.641 297.275C-9.85896 188.775 82.14 87.7751 102.141 75.2751C182.141 17.7751 240.641 60.7751 269.141 68.7751C297.641 76.7751 327.641 74.7751 357.641 48.2751C381.641 27.0751 365.308 10.7751 354.141 5.27513L350.822 3.50165L348.822 3.00165H346.822H345.322L343.822 3.50165L342.322 4.00165L340.641 5.27513Z" fill="#0455BF"/>
<path d="M142.543 166.502C156.143 141.302 188.21 141.002 202.543 144.002C218.144 146.802 233.377 164.835 239.043 173.502C252.21 195.668 279.543 241.502 283.543 247.502C288.543 255.002 318.043 297.502 349.543 292.002C381.043 286.502 371.543 249.502 353.043 246.502C338.243 244.102 327.543 231.502 324.043 225.502C315.043 211.502 294.443 178.902 284.043 160.502C271.043 137.502 265.043 130.502 245.543 115.002C229.943 102.602 209.21 97.8351 200.543 97.0017C192.543 97.0018 204.543 97.0018 185.543 97.0017C154.039 97.0015 132.043 111.502 112.043 131.502C96.043 147.502 90.7097 170.502 90.0431 180.002C89.8765 182.668 89.6431 191.302 90.0431 204.502C92.0431 236.902 113.543 260.668 124.043 268.502C134.21 276.835 160.343 293.502 183.543 293.502C206.743 293.502 220.543 307.168 224.543 314.002C229.376 323.002 243.043 345.402 259.043 363.002C275.043 380.602 299.043 386.668 309.043 387.502H353.043C382.643 368.702 365.376 350.335 353.043 343.502C344.376 343.168 324.143 342.402 312.543 342.002C298.043 341.502 281.543 321.502 270.043 299.502C258.543 277.502 238.043 260.002 222.543 254.002C207.043 248.002 191.043 248.502 177.543 247.002C164.043 245.502 153.543 235.502 150.043 232.002C144.043 227.002 125.543 198.002 142.543 166.502Z" fill="#0455BF"/>
<path d="M358.92 106.914C334.92 81.9143 311.419 110.414 317.92 124.414L341.919 174.414C365.919 196.814 389.919 174.414 382.419 155.414L358.92 106.914Z" fill="#0455BF"/>
</svg>
